<?xml version="1.0" encoding="UTF-8" standalone="no"?>
<!-- Created with Inkscape (http://www.inkscape.org/) -->

<svg
   xmlns:dc="http://purl.org/dc/elements/1.1/"
   xmlns:cc="http://creativecommons.org/ns#"
   xmlns:rdf="http://www.w3.org/1999/02/22-rdf-syntax-ns#"
   xmlns:svg="http://www.w3.org/2000/svg"
   xmlns="http://www.w3.org/2000/svg"
   xmlns:sodipodi="http://sodipodi.sourceforge.net/DTD/sodipodi-0.dtd"
   xmlns:inkscape="http://www.inkscape.org/namespaces/inkscape"
   width="210mm"
   height="297mm"
   viewBox="0 0 210 297"
   version="1.1"
   id="svg3799"
   inkscape:version="0.48.4 r9939"
   sodipodi:docname="Thereminus_Rex_small.svg">
  <defs
     id="defs3793" />
  <sodipodi:namedview
     id="base"
     pagecolor="#ffffff"
     bordercolor="#666666"
     borderopacity="1.0"
     inkscape:pageopacity="0.0"
     inkscape:pageshadow="2"
     inkscape:zoom="1.035308"
     inkscape:cx="324.48796"
     inkscape:cy="736.70071"
     inkscape:document-units="mm"
     inkscape:current-layer="layer1"
     showgrid="false"
     inkscape:window-width="1920"
     inkscape:window-height="1018"
     inkscape:window-x="-8"
     inkscape:window-y="-8"
     inkscape:window-maximized="1" />
  <metadata
     id="metadata3796">
    <rdf:RDF>
      <cc:Work
         rdf:about="">
        <dc:format>image/svg+xml</dc:format>
        <dc:type
           rdf:resource="http://purl.org/dc/dcmitype/StillImage" />
        <dc:title />
      </cc:Work>
    </rdf:RDF>
  </metadata>
  <g
     inkscape:label="Layer 1"
     inkscape:groupmode="layer"
     id="layer1">
    <g
       id="g3057"
       transform="matrix(0.38601416,0,0,0.38601416,1.0552579,-15.131269)">
      <path
         sodipodi:nodetypes="ccccccsccc"
         inkscape:connector-curvature="0"
         id="path3745"
         d="m 106.17924,202.12396 c 11.1893,-0.39492 31.78885,-1.54636 42.16308,-1.91251 l -6.04763,-75.21726 26.45833,2.64583 V 94.756084 l -54.05059,1.511911 c 0,0 3.35491,18.068295 1.5119,26.836315 -4.97238,23.65581 -32.883923,64.63393 -32.883923,64.63393 l -63.5,17.00892 c 26.866286,-0.94822 51.876195,-2.15337 79.426823,-3.12569"
         style="fill:none;stroke:#000000;stroke-width:4.79256916;stroke-linecap:round;stroke-linejoin:round;stroke-miterlimit:4;stroke-opacity:1;stroke-dasharray:none" />
      <path
         sodipodi:nodetypes="ccc"
         inkscape:connector-curvature="0"
         id="path3749"
         d="m 126.62568,143.15686 12.74307,4.195 c -4.28504,1.62942 -11.34645,1.84558 -13.51232,3.91796"
         style="fill:none;stroke:#000000;stroke-width:5.07753515;stroke-linecap:round;stroke-linejoin:round;stroke-miterlimit:4;stroke-opacity:1;stroke-dasharray:none" />
      <path
         sodipodi:nodetypes="ccc"
         inkscape:connector-curvature="0"
         id="path3757"
         d="m 143.3149,133.65596 10.92603,5.65509 -10.7075,2.19279"
         style="fill:none;stroke:#000000;stroke-width:4.02718687;stroke-linecap:butt;stroke-linejoin:round;stroke-miterlimit:4;stroke-opacity:1;stroke-dasharray:none" />
      <path
         sodipodi:nodetypes="ccc"
         inkscape:connector-curvature="0"
         id="path3761"
         d="m 151.65723,112.00452 0.93544,2.80633 2.20497,-2.53905"
         style="fill:none;stroke:#000000;stroke-width:2.59057832;stroke-linecap:butt;stroke-linejoin:miter;stroke-miterlimit:4;stroke-opacity:1;stroke-dasharray:none" />
      <ellipse
         ry="4.9444861"
         rx="8.3521729"
         cy="91.023872"
         cx="122.19076"
         id="path3763"
         style="fill:none;stroke:#000000;stroke-width:4.40398407;stroke-linecap:round;stroke-linejoin:round;stroke-miterlimit:3.79999995;stroke-opacity:1;stroke-dasharray:none"
         sodipodi:cx="122.19076"
         sodipodi:cy="91.023872"
         sodipodi:rx="8.3521729"
         sodipodi:ry="4.9444861"
         d="m 130.54293,91.023872 c 0,2.730765 -3.73939,4.944487 -8.35217,4.944487 -4.61278,0 -8.35218,-2.213722 -8.35218,-4.944487 0,-2.730764 3.7394,-4.944486 8.35218,-4.944486 4.61278,0 8.35217,2.213722 8.35217,4.944486 z" />
      <path
         sodipodi:nodetypes="csc"
         inkscape:connector-curvature="0"
         id="path3773"
         d="m 144.84185,165.19116 c 0,0 -11.27674,-0.0233 -14.54327,3.41522 -7.89199,8.30748 -1.092,32.26526 -1.092,32.26526"
         style="fill:none;stroke:#000000;stroke-width:4.79256916;stroke-linecap:butt;stroke-linejoin:round;stroke-miterlimit:4;stroke-opacity:1;stroke-dasharray:none" />
      <ellipse
         ry="4.3687272"
         rx="7.5091448"
         cy="91.068832"
         cx="139.1138"
         id="path3763-3"
         style="fill:none;stroke:#000000;stroke-width:3.92516661;stroke-linecap:round;stroke-linejoin:round;stroke-miterlimit:3.79999995;stroke-opacity:1;stroke-dasharray:none"
         sodipodi:cx="139.1138"
         sodipodi:cy="91.068832"
         sodipodi:rx="7.5091448"
         sodipodi:ry="4.3687272"
         d="m 146.62294,91.068832 c 0,2.412782 -3.36195,4.368728 -7.50914,4.368728 -4.14719,0 -7.50914,-1.955946 -7.50914,-4.368728 0,-2.412781 3.36195,-4.368727 7.50914,-4.368727 4.14719,0 7.50914,1.955946 7.50914,4.368727 z" />
      <ellipse
         ry="0.90006667"
         rx="0.96233851"
         cy="97.543419"
         cx="163.63959"
         id="path4673"
         style="fill:none;stroke:#000000;stroke-width:1.43277562;stroke-linecap:round;stroke-linejoin:round;stroke-miterlimit:3.79999995;stroke-opacity:1;stroke-dasharray:none"
         sodipodi:cx="163.63959"
         sodipodi:cy="97.543419"
         sodipodi:rx="0.96233851"
         sodipodi:ry="0.90006667"
         d="m 164.60193,97.543419 c 0,0.497093 -0.43086,0.900067 -0.96234,0.900067 -0.53149,0 -0.96234,-0.402974 -0.96234,-0.900067 0,-0.497093 0.43085,-0.900067 0.96234,-0.900067 0.53148,0 0.96234,0.402974 0.96234,0.900067 z" />
      <ellipse
         ry="0.84305507"
         rx="0.86626208"
         cy="97.635513"
         cx="166.1884"
         id="path4675"
         style="fill:none;stroke:#000000;stroke-width:1.32637906;stroke-linecap:round;stroke-linejoin:round;stroke-miterlimit:3.79999995;stroke-opacity:1;stroke-dasharray:none"
         sodipodi:cx="166.1884"
         sodipodi:cy="97.635513"
         sodipodi:rx="0.86626208"
         sodipodi:ry="0.84305507"
         d="m 167.05466,97.635513 c 0,0.465607 -0.38784,0.843055 -0.86626,0.843055 -0.47842,0 -0.86626,-0.377448 -0.86626,-0.843055 0,-0.465606 0.38784,-0.843055 0.86626,-0.843055 0.47842,0 0.86626,0.377449 0.86626,0.843055 z" />
      <path
         inkscape:connector-curvature="0"
         id="path4679"
         d="M 168.11253,113.2522 C 146.8312,112.58403 146.8312,110.74655 146.8312,110.74655"
         style="fill:none;stroke:#000000;stroke-width:3.10869503;stroke-linecap:round;stroke-linejoin:round;stroke-miterlimit:4;stroke-opacity:1;stroke-dasharray:none" />
      <ellipse
         ry="0.94494045"
         rx="1.3229166"
         cy="90.983978"
         cx="121.93301"
         id="path4681"
         style="fill:#000000;fill-opacity:1;stroke:#000000;stroke-width:3.10869503;stroke-linecap:round;stroke-linejoin:round;stroke-miterlimit:4;stroke-opacity:1;stroke-dasharray:none"
         sodipodi:cx="121.93301"
         sodipodi:cy="90.983978"
         sodipodi:rx="1.3229166"
         sodipodi:ry="0.94494045"
         d="m 123.25592,90.983978 c 0,0.521876 -0.59229,0.944941 -1.32291,0.944941 -0.73063,0 -1.32292,-0.423065 -1.32292,-0.944941 0,-0.521876 0.59229,-0.94494 1.32292,-0.94494 0.73062,0 1.32291,0.423064 1.32291,0.94494 z" />
      <ellipse
         ry="1.0394346"
         rx="1.5119048"
         cy="91.456459"
         cx="138.94194"
         id="path4683"
         style="fill:#000000;fill-opacity:1;stroke:#000000;stroke-width:3.10869503;stroke-linecap:round;stroke-linejoin:round;stroke-miterlimit:4;stroke-opacity:1;stroke-dasharray:none"
         sodipodi:cx="138.94194"
         sodipodi:cy="91.456459"
         sodipodi:rx="1.5119048"
         sodipodi:ry="1.0394346"
         d="m 140.45385,91.456459 c 0,0.574064 -0.67691,1.039435 -1.51191,1.039435 -0.835,0 -1.5119,-0.465371 -1.5119,-1.039435 0,-0.574064 0.6769,-1.039435 1.5119,-1.039435 0.835,0 1.51191,0.465371 1.51191,1.039435 z" />
      <path
         inkscape:connector-curvature="0"
         id="path4685"
         d="m 116.21433,123.10431 -8.64442,3.40943 1.88988,9.82739 -9.63839,4.15774 1.70089,10.20535 -9.07143,6.23661 0.94494,9.07143 -7.74851,3.59077 1.322917,9.63839 -6.425597,1.51191 2.785796,6.98491 v 0"
         style="fill:none;stroke:#000000;stroke-width:3.8858676;stroke-linecap:butt;stroke-linejoin:miter;stroke-miterlimit:4;stroke-opacity:1;stroke-dasharray:none" />
      <path
         sodipodi:nodetypes="cssscsc"
         inkscape:connector-curvature="0"
         id="path4687"
         d="m 99.25723,201.62147 c 0,0 -0.96225,9.47619 1.80904,12.56235 1.59209,1.77299 1.89679,0.59901 4.46628,0.46425 2.47169,-0.12963 6.13905,1.68702 7.56871,-0.12926 1.2808,-1.62715 -0.73639,-3.85245 -0.73639,-3.85245 0,0 -4.39363,1.11834 -5.9745,-0.47659 -1.50974,-1.52316 -0.21113,-8.06581 -0.21113,-8.06581"
         style="fill:none;stroke:#000000;stroke-width:3.98296309;stroke-linecap:round;stroke-linejoin:round;stroke-miterlimit:4;stroke-opacity:1;stroke-dasharray:none" />
      <path
         sodipodi:nodetypes="cscsc"
         inkscape:connector-curvature="0"
         id="path4687-5"
         d="m 113.97285,214.35356 c 2.12747,0.35769 4.43074,0.9912 5.49469,-0.30551 1.28079,-1.561 -0.73639,-3.69581 -0.73639,-3.69581 0,0 -4.39363,1.07287 -5.9745,-0.45721 -1.50974,-1.46122 -0.21113,-7.73784 -0.21113,-7.73784"
         style="fill:none;stroke:#000000;stroke-width:3.90114689;stroke-linecap:round;stroke-linejoin:round;stroke-miterlimit:4;stroke-opacity:1;stroke-dasharray:none" />
      <path
         inkscape:connector-curvature="0"
         id="path4734"
         d="m 107.57968,202.33456 c -1.19945,8.55605 0.74965,8.64336 0.74965,8.64336"
         style="fill:none;stroke:#000000;stroke-width:3.54867411;stroke-linecap:round;stroke-linejoin:round;stroke-miterlimit:4;stroke-opacity:1;stroke-dasharray:none" />
      <g
         transform="matrix(1,0,0,0.86599133,-11.49259,14.343523)"
         id="g4750">
        <path
           style="fill:none;stroke:#000000;stroke-width:3.91304135;stroke-linecap:butt;stroke-linejoin:miter;stroke-miterlimit:4;stroke-opacity:1;stroke-dasharray:none"
           d="m 169.18161,93.073353 c 0,-40.090434 0,-40.090434 0,-40.090434"
           id="path4742"
           inkscape:connector-curvature="0" />
        <path
           style="fill:none;stroke:#000000;stroke-width:2.7981441;stroke-linecap:butt;stroke-linejoin:miter;stroke-miterlimit:4;stroke-opacity:1;stroke-dasharray:none"
           d="m 167.84526,52.715651 h 2.80633"
           id="path4746"
           inkscape:connector-curvature="0" />
      </g>
      <path
         sodipodi:open="true"
         sodipodi:cx="149.50491"
         sodipodi:cy="58.525124"
         sodipodi:rx="8.0715275"
         sodipodi:ry="9.9956245"
         sodipodi:end="4.712389"
         sodipodi:start="1.5815853"
         sodipodi:type="arc"
         d="m 149.41783,68.520166 c -4.45752,-0.05956 -8.03207,-4.582773 -7.98397,-10.102883 0.0477,-5.478044 3.64724,-9.887784 8.07105,-9.887784"
         id="path4760"
         style="fill:none;stroke:#000000;stroke-width:3.02825332;stroke-linecap:round;stroke-linejoin:round;stroke-miterlimit:4;stroke-opacity:1;stroke-dasharray:none" />
      <path
         sodipodi:open="true"
         sodipodi:cx="152.90099"
         sodipodi:cy="58.942905"
         sodipodi:rx="3.0650816"
         sodipodi:ry="4.5874743"
         sodipodi:end="4.712389"
         sodipodi:start="1.5815853"
         sodipodi:type="arc"
         d="m 152.86792,63.530113 c -1.6927,-0.02734 -3.0501,-2.103256 -3.03184,-4.636701 0.0181,-2.514138 1.38501,-4.537981 3.06491,-4.537981"
         id="path4760-3"
         style="fill:none;stroke:#000000;stroke-width:1.2642045;stroke-linecap:round;stroke-linejoin:round;stroke-miterlimit:4;stroke-opacity:1;stroke-dasharray:none" />
      <path
         sodipodi:open="true"
         sodipodi:cx="151.02715"
         sodipodi:cy="58.742523"
         sodipodi:rx="4.9351239"
         sodipodi:ry="6.7925091"
         sodipodi:end="4.712389"
         sodipodi:start="1.5815853"
         sodipodi:type="arc"
         d="m 150.9739,65.534637 c -2.72543,-0.04047 -4.911,-3.114216 -4.88159,-6.865397 0.0292,-3.722595 2.23001,-6.719226 4.93484,-6.719226"
         id="path4760-5"
         style="fill:none;stroke:#000000;stroke-width:1.95197237;stroke-linecap:round;stroke-linejoin:round;stroke-miterlimit:4;stroke-opacity:1;stroke-dasharray:none" />
      <path
         transform="scale(-1,-1)"
         sodipodi:open="true"
         sodipodi:cx="-165.72148"
         sodipodi:cy="-58.808861"
         sodipodi:rx="8.0715275"
         sodipodi:ry="9.9956245"
         sodipodi:end="4.712389"
         sodipodi:start="1.5815853"
         sodipodi:type="arc"
         d="m -165.80856,-48.813818 c -4.45753,-0.05956 -8.03207,-4.582774 -7.98398,-10.102883 0.0477,-5.478044 3.64725,-9.887784 8.07106,-9.887784"
         id="path4760-2"
         style="fill:none;stroke:#000000;stroke-width:3.02825332;stroke-linecap:round;stroke-linejoin:round;stroke-miterlimit:4;stroke-opacity:1;stroke-dasharray:none" />
      <path
         transform="scale(-1,-1)"
         sodipodi:open="true"
         sodipodi:cx="-162.32541"
         sodipodi:cy="-58.391079"
         sodipodi:rx="3.0650816"
         sodipodi:ry="4.5874743"
         sodipodi:end="4.712389"
         sodipodi:start="1.5815853"
         sodipodi:type="arc"
         d="m -162.35848,-53.803872 c -1.6927,-0.02733 -3.0501,-2.103255 -3.03183,-4.6367 0.0181,-2.514139 1.385,-4.537981 3.0649,-4.537981"
         id="path4760-3-9"
         style="fill:none;stroke:#000000;stroke-width:1.2642045;stroke-linecap:round;stroke-linejoin:round;stroke-miterlimit:4;stroke-opacity:1;stroke-dasharray:none" />
      <path
         transform="scale(-1,-1)"
         sodipodi:open="true"
         sodipodi:cx="-164.19925"
         sodipodi:cy="-58.591461"
         sodipodi:rx="4.9351239"
         sodipodi:ry="6.7925091"
         sodipodi:end="4.712389"
         sodipodi:start="1.5815853"
         sodipodi:type="arc"
         d="m -164.25249,-51.799347 c -2.72544,-0.04047 -4.911,-3.114216 -4.8816,-6.865397 0.0292,-3.722595 2.23002,-6.719226 4.93484,-6.719226"
         id="path4760-5-1"
         style="fill:none;stroke:#000000;stroke-width:1.95197237;stroke-linecap:round;stroke-linejoin:round;stroke-miterlimit:4;stroke-opacity:1;stroke-dasharray:none" />
      <path
         sodipodi:nodetypes="csscc"
         inkscape:connector-curvature="0"
         id="path4839"
         d="m 154.24093,139.31105 c 40.1603,-2.97714 32.42041,7.09126 19.60993,8.96023 -3.70913,0.54114 -17.75518,-0.14651 -22.13915,-0.69013 -6.36541,-0.78934 -12.33067,-0.21456 -12.33067,-0.21456 v 0"
         style="fill:none;stroke:#000000;stroke-width:2.59057832;stroke-linecap:butt;stroke-linejoin:miter;stroke-miterlimit:4;stroke-opacity:1;stroke-dasharray:none" />
      <ellipse
         ry="2.0045214"
         rx="2.1381562"
         cy="139.17734"
         cx="153.67998"
         id="path4841"
         style="fill:#000000;fill-opacity:1;stroke:#000000;stroke-width:2.59057832;stroke-linecap:round;stroke-linejoin:round;stroke-miterlimit:4;stroke-opacity:1;stroke-dasharray:none"
         sodipodi:cx="153.67998"
         sodipodi:cy="139.17734"
         sodipodi:rx="2.1381562"
         sodipodi:ry="2.0045214"
         d="m 155.81813,139.17734 c 0,1.10706 -0.95728,2.00452 -2.13815,2.00452 -1.18087,0 -2.13816,-0.89746 -2.13816,-2.00452 0,-1.10707 0.95729,-2.00452 2.13816,-2.00452 1.18087,0 2.13815,0.89745 2.13815,2.00452 z" />
      <ellipse
         ry="2.0045214"
         rx="2.1381562"
         cy="147.32907"
         cx="139.51469"
         id="path4841-2"
         style="fill:#000000;fill-opacity:1;stroke:#000000;stroke-width:2.59057832;stroke-linecap:round;stroke-linejoin:round;stroke-miterlimit:4;stroke-opacity:1;stroke-dasharray:none"
         sodipodi:cx="139.51469"
         sodipodi:cy="147.32907"
         sodipodi:rx="2.1381562"
         sodipodi:ry="2.0045214"
         d="m 141.65285,147.32907 c 0,1.10707 -0.95728,2.00452 -2.13816,2.00452 -1.18087,0 -2.13815,-0.89745 -2.13815,-2.00452 0,-1.10707 0.95728,-2.00452 2.13815,-2.00452 1.18088,0 2.13816,0.89745 2.13816,2.00452 z" />
      <path
         transform="scale(-1,-1)"
         sodipodi:open="true"
         sodipodi:cx="-188.3242"
         sodipodi:cy="-143.31979"
         sodipodi:rx="8.0715275"
         sodipodi:ry="9.9956245"
         sodipodi:end="4.712389"
         sodipodi:start="1.5815853"
         sodipodi:type="arc"
         d="m -188.41129,-133.32475 c -4.45752,-0.0596 -8.03207,-4.58277 -7.98397,-10.10288 0.0477,-5.47805 3.64725,-9.88779 8.07106,-9.88779"
         id="path4760-2-7"
         style="fill:none;stroke:#000000;stroke-width:3.02825332;stroke-linecap:round;stroke-linejoin:round;stroke-miterlimit:4;stroke-opacity:1;stroke-dasharray:none" />
      <path
         transform="scale(-1,-1)"
         sodipodi:open="true"
         sodipodi:cx="-184.92813"
         sodipodi:cy="-142.90201"
         sodipodi:rx="3.0650816"
         sodipodi:ry="4.5874743"
         sodipodi:end="4.712389"
         sodipodi:start="1.5815853"
         sodipodi:type="arc"
         d="m -184.9612,-138.3148 c -1.6927,-0.0273 -3.0501,-2.10326 -3.03183,-4.6367 0.0181,-2.51414 1.385,-4.53798 3.0649,-4.53798"
         id="path4760-3-9-0"
         style="fill:none;stroke:#000000;stroke-width:1.2642045;stroke-linecap:round;stroke-linejoin:round;stroke-miterlimit:4;stroke-opacity:1;stroke-dasharray:none" />
      <path
         transform="scale(-1,-1)"
         sodipodi:open="true"
         sodipodi:cx="-186.80197"
         sodipodi:cy="-143.10239"
         sodipodi:rx="4.9351239"
         sodipodi:ry="6.7925091"
         sodipodi:end="4.712389"
         sodipodi:start="1.5815853"
         sodipodi:type="arc"
         d="m -186.85522,-136.31027 c -2.72543,-0.0405 -4.91099,-3.11422 -4.88159,-6.8654 0.0292,-3.72259 2.23002,-6.71923 4.93484,-6.71923"
         id="path4760-5-1-9"
         style="fill:none;stroke:#000000;stroke-width:1.95197237;stroke-linecap:round;stroke-linejoin:round;stroke-miterlimit:4;stroke-opacity:1;stroke-dasharray:none" />
    </g>
    <text
       xml:space="preserve"
       style="font-size:9.03111172000000020px;font-style:normal;font-variant:normal;font-weight:200;font-stretch:normal;line-height:125%;letter-spacing:0px;word-spacing:0px;fill:#000000;fill-opacity:1;stroke:#000000;font-family:prehistoric;-inkscape-font-specification:prehistoric Ultra-Light;stroke-width:0.127;stroke-miterlimit:4;stroke-dasharray:none;stroke-opacity:1"
       x="-22.303587"
       y="38.579582"
       id="text3022"
       sodipodi:linespacing="125%"
       transform="matrix(0.76054455,-0.64928576,0.64928576,0.76054455,0,0)"
       inkscape:transform-center-x="15.818445"
       inkscape:transform-center-y="-13.301893"><tspan
         sodipodi:role="line"
         id="tspan3024"
         x="-22.303587"
         y="38.579582">Thereminus Rex</tspan></text>
  </g>
</svg>
