<?xml version="1.0" encoding="UTF-8" standalone="no"?>
<!-- Created with Inkscape (http://www.inkscape.org/) -->

<svg
   xmlns:dc="http://purl.org/dc/elements/1.1/"
   xmlns:cc="http://creativecommons.org/ns#"
   xmlns:rdf="http://www.w3.org/1999/02/22-rdf-syntax-ns#"
   xmlns:svg="http://www.w3.org/2000/svg"
   xmlns="http://www.w3.org/2000/svg"
   xmlns:sodipodi="http://sodipodi.sourceforge.net/DTD/sodipodi-0.dtd"
   xmlns:inkscape="http://www.inkscape.org/namespaces/inkscape"
   width="210mm"
   height="297mm"
   viewBox="0 0 210 297"
   version="1.1"
   id="svg3799"
   inkscape:version="0.91 r13725"
   sodipodi:docname="v1_freecad_prep.svg">
  <defs
     id="defs3793" />
  <sodipodi:namedview
     id="base"
     pagecolor="#ffffff"
     bordercolor="#666666"
     borderopacity="1.0"
     inkscape:pageopacity="0.0"
     inkscape:pageshadow="2"
     inkscape:zoom="0.98994949"
     inkscape:cx="501.43173"
     inkscape:cy="512.60926"
     inkscape:document-units="mm"
     inkscape:current-layer="layer1"
     showgrid="false"
     inkscape:window-width="1313"
     inkscape:window-height="744"
     inkscape:window-x="53"
     inkscape:window-y="24"
     inkscape:window-maximized="1" />
  <metadata
     id="metadata3796">
    <rdf:RDF>
      <cc:Work
         rdf:about="">
        <dc:format>image/svg+xml</dc:format>
        <dc:type
           rdf:resource="http://purl.org/dc/dcmitype/StillImage" />
        <dc:title></dc:title>
      </cc:Work>
    </rdf:RDF>
  </metadata>
  <g
     inkscape:label="Layer 1"
     inkscape:groupmode="layer"
     id="layer1">
    <path
       style="fill:none;fill-rule:evenodd;stroke:#000000;stroke-width:0.05;stroke-linecap:round;stroke-linejoin:round;stroke-miterlimit:3.95000005;stroke-dasharray:none;stroke-opacity:1"
       d="m 117.67183,200.25307 c 11.1893,-0.39492 31.78885,-1.54636 42.16308,-1.91251 l -6.04763,-75.21726 26.45833,2.64583 V 92.885197 l -54.05059,1.511911 c 0,0 3.35491,18.068292 1.5119,26.836312 -4.97238,23.65581 -32.883923,64.63393 -32.883923,64.63393 l -63.5,17.00892 c 26.866286,-0.94822 51.876195,-2.15337 79.426823,-3.12569"
       id="path3745"
       inkscape:connector-curvature="0"
       sodipodi:nodetypes="ccccccsccc" />
    <path
       style="fill:none;fill-rule:evenodd;stroke:#000000;stroke-width:0.05;stroke-linecap:round;stroke-linejoin:round;stroke-miterlimit:3.95000005;stroke-dasharray:none;stroke-opacity:1"
       d="m 137.58373,132.73335 12.74307,4.195 c -4.28504,1.62942 -11.34645,1.84558 -13.51232,3.91796"
       id="path3749"
       inkscape:connector-curvature="0"
       sodipodi:nodetypes="ccc" />
    <path
       style="fill:none;fill-rule:evenodd;stroke:#000000;stroke-width:0.05;stroke-linecap:butt;stroke-linejoin:round;stroke-miterlimit:3.95000005;stroke-dasharray:none;stroke-opacity:1"
       d="m 154.80749,131.78507 10.92603,5.65509 -10.7075,2.19279"
       id="path3757"
       inkscape:connector-curvature="0"
       sodipodi:nodetypes="ccc" />
    <path
       style="fill:none;fill-rule:evenodd;stroke:#000000;stroke-width:0.05;stroke-linecap:butt;stroke-linejoin:miter;stroke-miterlimit:3.95000005;stroke-dasharray:none;stroke-opacity:1"
       d="m 163.14982,110.13363 0.93544,2.80633 2.20497,-2.53905"
       id="path3761"
       inkscape:connector-curvature="0"
       sodipodi:nodetypes="ccc" />
    <path
       style="fill:none;fill-opacity:1;stroke:#000000;stroke-width:0.05;stroke-linecap:round;stroke-linejoin:round;stroke-miterlimit:3.95000005;stroke-dasharray:none;stroke-opacity:1"
       d="m 142.03552,89.152985 a 8.3521729,4.9444861 0 0 1 -8.35217,4.944486 8.3521729,4.9444861 0 0 1 -8.35217,-4.944486 8.3521729,4.9444861 0 0 1 8.35217,-4.944487 8.3521729,4.9444861 0 0 1 8.35217,4.944487 z"
       id="path3763" />
    <path
       style="fill:none;fill-rule:evenodd;stroke:#000000;stroke-width:0.05;stroke-linecap:butt;stroke-linejoin:round;stroke-miterlimit:3.95000005;stroke-dasharray:none;stroke-opacity:1"
       d="m 156.33444,163.32027 c 0,0 -11.27674,-0.0233 -14.54327,3.41522 -7.89199,8.30748 -1.092,32.26526 -1.092,32.26526"
       id="path3773"
       inkscape:connector-curvature="0"
       sodipodi:nodetypes="csc" />
    <path
       style="fill:none;fill-opacity:1;stroke:#000000;stroke-width:0.05;stroke-linecap:round;stroke-linejoin:round;stroke-miterlimit:3.95000005;stroke-dasharray:none;stroke-opacity:1"
       d="m 158.11553,89.197945 a 7.5091448,4.3687272 0 0 1 -7.50915,4.368727 7.5091448,4.3687272 0 0 1 -7.50914,-4.368727 7.5091448,4.3687272 0 0 1 7.50914,-4.368728 7.5091448,4.3687272 0 0 1 7.50915,4.368728 z"
       id="path3763-3" />
    <path
       style="fill:none;fill-opacity:1;stroke:#000000;stroke-width:0.05;stroke-linecap:round;stroke-linejoin:round;stroke-miterlimit:3.95000005;stroke-dasharray:none;stroke-opacity:1"
       d="m 176.09451,95.672531 a 0.96233851,0.90006667 0 0 1 -0.96234,0.900067 0.96233851,0.90006667 0 0 1 -0.96234,-0.900067 0.96233851,0.90006667 0 0 1 0.96234,-0.900067 0.96233851,0.90006667 0 0 1 0.96234,0.900067 z"
       id="path4673" />
    <path
       style="fill:none;fill-opacity:1;stroke:#000000;stroke-width:0.05;stroke-linecap:round;stroke-linejoin:round;stroke-miterlimit:3.95000005;stroke-dasharray:none;stroke-opacity:1"
       d="m 178.54725,95.764626 a 0.86626208,0.84305507 0 0 1 -0.86627,0.843055 0.86626208,0.84305507 0 0 1 -0.86626,-0.843055 0.86626208,0.84305507 0 0 1 0.86626,-0.843056 0.86626208,0.84305507 0 0 1 0.86627,0.843056 z"
       id="path4675" />
    <path
       style="fill:none;fill-rule:evenodd;stroke:#000000;stroke-width:0.05;stroke-linecap:round;stroke-linejoin:round;stroke-opacity:1;stroke-miterlimit:3.95000005;stroke-dasharray:none"
       d="m 179.60512,111.38131 c -21.28133,-0.66817 -21.28133,-2.50565 -21.28133,-2.50565"
       id="path4679"
       inkscape:connector-curvature="0" />
    <path
       style="fill:none;fill-opacity:1;stroke:#000000;stroke-width:0.05;stroke-linecap:round;stroke-linejoin:round;stroke-miterlimit:3.95000005;stroke-dasharray:none;stroke-opacity:1"
       d="m 134.74851,89.113091 a 1.3229166,0.94494045 0 0 1 -1.32291,0.94494 1.3229166,0.94494045 0 0 1 -1.32292,-0.94494 1.3229166,0.94494045 0 0 1 1.32292,-0.944941 1.3229166,0.94494045 0 0 1 1.32291,0.944941 z"
       id="path4681" />
    <path
       style="fill:none;fill-opacity:1;stroke:#000000;stroke-width:0.05;stroke-linecap:round;stroke-linejoin:round;stroke-miterlimit:3.95000005;stroke-dasharray:none;stroke-opacity:1"
       d="m 151.94643,89.585571 a 1.5119048,1.0394346 0 0 1 -1.51191,1.039435 1.5119048,1.0394346 0 0 1 -1.5119,-1.039435 1.5119048,1.0394346 0 0 1 1.5119,-1.039434 1.5119048,1.0394346 0 0 1 1.51191,1.039434 z"
       id="path4683" />
    <path
       style="fill:none;fill-rule:evenodd;stroke:#000000;stroke-width:0.05;stroke-linecap:butt;stroke-linejoin:miter;stroke-opacity:1;stroke-miterlimit:3.95000005;stroke-dasharray:none"
       d="m 127.70692,121.23342 -8.64442,3.40943 1.88988,9.82739 -9.63839,4.15774 1.70089,10.20535 -9.07143,6.23661 0.94494,9.07143 -7.74851,3.59077 1.322917,9.63839 -6.425597,1.51191 2.785796,6.98491 v 0"
       id="path4685"
       inkscape:connector-curvature="0" />
    <path
       style="fill:none;fill-opacity:1;fill-rule:evenodd;stroke:#000000;stroke-width:0.05;stroke-linecap:round;stroke-linejoin:round;stroke-miterlimit:3.95000005;stroke-dasharray:none;stroke-opacity:1"
       d="m 110.74982,199.75058 c 0,0 -0.96225,9.47619 1.80904,12.56235 1.59209,1.77299 1.89679,0.59901 4.46628,0.46425 2.47169,-0.12963 6.13905,1.68702 7.56871,-0.12926 1.2808,-1.62715 -0.73639,-3.85245 -0.73639,-3.85245 0,0 -4.39363,1.11834 -5.9745,-0.47659 -1.50974,-1.52316 -0.21113,-8.06581 -0.21113,-8.06581"
       id="path4687"
       inkscape:connector-curvature="0"
       sodipodi:nodetypes="cssscsc" />
    <path
       style="fill:none;fill-opacity:1;fill-rule:evenodd;stroke:#000000;stroke-width:0.05;stroke-linecap:round;stroke-linejoin:round;stroke-miterlimit:3.95000005;stroke-dasharray:none;stroke-opacity:1"
       d="m 125.46544,212.48267 c 2.12747,0.35769 4.43074,0.9912 5.49469,-0.30551 1.28079,-1.561 -0.73639,-3.69581 -0.73639,-3.69581 0,0 -4.39363,1.07287 -5.9745,-0.45721 -1.50974,-1.46122 -0.21113,-7.73784 -0.21113,-7.73784"
       id="path4687-5"
       inkscape:connector-curvature="0"
       sodipodi:nodetypes="cscsc" />
    <path
       style="fill:none;fill-rule:evenodd;stroke:#000000;stroke-width:0.05;stroke-linecap:round;stroke-linejoin:round;stroke-miterlimit:3.95000005;stroke-dasharray:none;stroke-opacity:1"
       d="m 119.07227,200.46367 c -1.19945,8.55605 0.74965,8.64336 0.74965,8.64336"
       id="path4734"
       inkscape:connector-curvature="0" />
  </g>
</svg>
