<?xml version="1.0" encoding="UTF-8" standalone="no"?>
<!-- Created with Inkscape (http://www.inkscape.org/) -->

<svg
   xmlns:dc="http://purl.org/dc/elements/1.1/"
   xmlns:cc="http://creativecommons.org/ns#"
   xmlns:rdf="http://www.w3.org/1999/02/22-rdf-syntax-ns#"
   xmlns:svg="http://www.w3.org/2000/svg"
   xmlns="http://www.w3.org/2000/svg"
   xmlns:sodipodi="http://sodipodi.sourceforge.net/DTD/sodipodi-0.dtd"
   xmlns:inkscape="http://www.inkscape.org/namespaces/inkscape"
   width="48in"
   height="96in"
   viewBox="0 0 1219.2 2438.4001"
   version="1.1"
   id="svg3799"
   inkscape:version="0.91 r13725"
   sodipodi:docname="v1FreeCad.svg">
  <defs
     id="defs3793" />
  <sodipodi:namedview
     id="base"
     pagecolor="#ffffff"
     bordercolor="#666666"
     borderopacity="1.0"
     inkscape:pageopacity="0.0"
     inkscape:pageshadow="2"
     inkscape:zoom="0.064200653"
     inkscape:cx="5914.4885"
     inkscape:cy="4388.543"
     inkscape:document-units="mm"
     inkscape:current-layer="layer1"
     showgrid="true"
     inkscape:window-width="1313"
     inkscape:window-height="744"
     inkscape:window-x="53"
     inkscape:window-y="24"
     inkscape:window-maximized="1"
     units="ft">
    <inkscape:grid
       type="xygrid"
       id="grid4818"
       units="ft"
       spacingx="76.200001"
       spacingy="76.200002" />
  </sodipodi:namedview>
  <metadata
     id="metadata3796">
    <rdf:RDF>
      <cc:Work
         rdf:about="">
        <dc:format>image/svg+xml</dc:format>
        <dc:type
           rdf:resource="http://purl.org/dc/dcmitype/StillImage" />
        <dc:title></dc:title>
      </cc:Work>
    </rdf:RDF>
  </metadata>
  <g
     inkscape:label="Layer 1"
     inkscape:groupmode="layer"
     id="layer1"
     transform="translate(0,2141.4)">
    <path
       style="color:#000000;font-style:normal;font-variant:normal;font-weight:normal;font-stretch:normal;font-size:medium;line-height:normal;font-family:sans-serif;text-indent:0;text-align:start;text-decoration:none;text-decoration-line:none;text-decoration-style:solid;text-decoration-color:#000000;letter-spacing:normal;word-spacing:normal;text-transform:none;direction:ltr;block-progression:tb;writing-mode:lr-tb;baseline-shift:baseline;text-anchor:start;white-space:normal;clip-rule:nonzero;display:inline;overflow:visible;visibility:visible;opacity:1;isolation:auto;mix-blend-mode:normal;color-interpolation:sRGB;color-interpolation-filters:linearRGB;solid-color:#000000;solid-opacity:1;fill:#000000;fill-opacity:1;fill-rule:evenodd;stroke:#000000;stroke-width:5.80783606;stroke-linecap:round;stroke-linejoin:round;stroke-miterlimit:3.95000005;stroke-dasharray:none;stroke-dashoffset:0;stroke-opacity:1;color-rendering:auto;image-rendering:auto;shape-rendering:auto;text-rendering:auto;enable-background:accumulate"
       d="m 2534.6597,432.42719 -48.881,-1765.51899 a 2.9042084,2.9042084 0 0 0 -3.5549,-2.8059 c 0,0 -147.5317,27.4159 -330.613,47.2751 -183.0814,19.859 -402.6014,32.0505 -544.8004,2.1069 -385.7152,-81.056 -913.62948,-349.4276 -1344.67063,-597.6036 -430.15238,-247.703 -763.43161,-474.6259 -764.32035,-475.4927 L -1057.646,-4432.7545 a 3.1381087,3.1381087 0 1 0 -6.2211,0.8291 c 31.106,877.6106 70.21077,1694.5885 102.20556,2594.5069 a 3.1133525,3.1133525 0 1 0 6.22122,-0.2613 c -31.9948,-890.9123 -70.21088,-1700.8036 -101.31688,-2568.3488 l 549.24415,2048.9627 a 2.9042084,2.9042084 0 0 0 0.88875,1.6586 c 0,0 335.05671,227.9636 766.09784,476.2583 431.04116,248.2949 958.95536,516.9386 1346.44806,598.3055 143.9766,30.2565 362.6078,17.843 546.5779,-2.0415 181.3039,-19.6814 324.3918,-46.2135 327.058,-46.7646 l 49.7697,1759.26666 -1068.2709,0 86.2081,-861.02868 a 2.9042084,2.9042084 0 0 0 -2.6662,-3.19152 L -910.11435,-237.33707 C -921.66803,-577.01952 -958.9953,-1246.965 -972.32647,-1611.578 a 2.905878,2.905878 0 0 0 -5.33247,0.2614 c 12.44243,365.5717 50.65844,1038.4399 62.21212,1377.23945 a 2.9042084,2.9042084 0 0 0 3.55499,2.80577 L 1541.0433,-428.60113 1454.835,432.23631 a 2.9042084,2.9042084 0 0 0 3.555,3.18812 l 1073.6034,0 a 2.9042084,2.9042084 0 0 0 2.6663,-2.99862 z"
       id="path3745"
       inkscape:connector-curvature="0" />
    <path
       style="color:#000000;font-style:normal;font-variant:normal;font-weight:normal;font-stretch:normal;font-size:medium;line-height:normal;font-family:sans-serif;text-indent:0;text-align:start;text-decoration:none;text-decoration-line:none;text-decoration-style:solid;text-decoration-color:#000000;letter-spacing:normal;word-spacing:normal;text-transform:none;direction:ltr;block-progression:tb;writing-mode:lr-tb;baseline-shift:baseline;text-anchor:start;white-space:normal;clip-rule:nonzero;display:inline;overflow:visible;visibility:visible;opacity:1;isolation:auto;mix-blend-mode:normal;color-interpolation:sRGB;color-interpolation-filters:linearRGB;solid-color:#000000;solid-opacity:1;fill:#000000;fill-opacity:1;fill-rule:nonzero;stroke:#000000;stroke-width:5.80783606;stroke-linecap:round;stroke-linejoin:round;stroke-miterlimit:3.95000005;stroke-dasharray:none;stroke-dashoffset:0;stroke-opacity:1;color-rendering:auto;image-rendering:auto;shape-rendering:auto;text-rendering:auto;enable-background:accumulate"
       d="m 1811.2216,-3918.0593 c 0,-75.8027 -17.7749,-144.4665 -47.1034,-194.3948 -30.2174,-49.9283 -71.0997,-81.3435 -117.3144,-81.3435 -45.3259,0 -87.0969,31.4152 -116.4255,81.3435 -29.3286,49.9283 -47.9922,118.5921 -47.9922,194.3948 0,75.8029 18.6636,144.4665 47.9922,194.3955 29.3286,49.9284 71.0996,81.3433 116.4255,81.3433 46.2147,0 87.097,-31.4149 117.3144,-81.3433 29.3285,-49.929 47.1034,-118.5926 47.1034,-194.3955 z m -5.3325,0 c 0,74.874 -18.6636,142.5826 -47.1035,191.3969 -29.3285,48.8142 -68.4333,78.5363 -111.9818,78.5363 -42.6597,0 -82.6532,-29.7221 -111.0931,-78.5363 -29.3285,-48.8143 -47.1034,-116.5229 -47.1034,-191.3969 0,-74.8732 17.7749,-142.6459 47.1034,-191.4597 28.4399,-48.8144 68.4334,-78.4728 111.0931,-78.4728 43.5485,0 82.6533,29.6584 111.9818,78.4728 28.4399,48.8138 47.1035,116.5865 47.1035,191.4597 z"
       id="path3763"
       inkscape:connector-curvature="0" />
    <path
       style="color:#000000;font-style:normal;font-variant:normal;font-weight:normal;font-stretch:normal;font-size:medium;line-height:normal;font-family:sans-serif;text-indent:0;text-align:start;text-decoration:none;text-decoration-line:none;text-decoration-style:solid;text-decoration-color:#000000;letter-spacing:normal;word-spacing:normal;text-transform:none;direction:ltr;block-progression:tb;writing-mode:lr-tb;baseline-shift:baseline;text-anchor:start;white-space:normal;clip-rule:nonzero;display:inline;overflow:visible;visibility:visible;opacity:1;isolation:auto;mix-blend-mode:normal;color-interpolation:sRGB;color-interpolation-filters:linearRGB;solid-color:#000000;solid-opacity:1;fill:#000000;fill-opacity:1;fill-rule:nonzero;stroke:#000000;stroke-width:5.80783606;stroke-linecap:round;stroke-linejoin:round;stroke-miterlimit:3.95000005;stroke-dasharray:none;stroke-dashoffset:0;stroke-opacity:1;color-rendering:auto;image-rendering:auto;shape-rendering:auto;text-rendering:auto;enable-background:accumulate"
       d="m 2345.3571,-3916.5916 c 0,-68.1904 -15.9974,-129.9296 -41.771,-174.8728 -26.6624,-44.9427 -63.1009,-73.3049 -103.9831,-73.3049 -40.8823,0 -77.3208,28.3622 -103.0944,73.3049 -26.6623,44.9432 -42.6598,106.6824 -42.6598,174.8728 0,68.1906 15.9975,129.9935 42.6598,174.9364 25.7736,44.9431 62.2121,73.305 103.0944,73.305 40.8822,0 77.3207,-28.3619 103.9831,-73.305 25.7736,-44.9429 41.771,-106.7458 41.771,-174.9364 z m -5.3325,0 c 0,67.2776 -15.9974,128.1682 -41.771,172.0014 -25.7736,43.8333 -60.4346,70.434 -98.6506,70.434 -38.216,0 -72.8771,-26.6007 -98.6506,-70.434 -24.8849,-43.8332 -40.8823,-104.7238 -40.8823,-172.0014 0,-67.2774 15.9974,-128.1048 40.8823,-171.9377 25.7735,-43.8331 60.4346,-70.4339 98.6506,-70.4339 38.216,0 72.877,26.6008 98.6506,70.4339 25.7736,43.8329 41.771,104.6603 41.771,171.9377 z"
       id="path3763-3"
       inkscape:connector-curvature="0" />
    <path
       style="color:#000000;font-style:normal;font-variant:normal;font-weight:normal;font-stretch:normal;font-size:medium;line-height:normal;font-family:sans-serif;text-indent:0;text-align:start;text-decoration:none;text-decoration-line:none;text-decoration-style:solid;text-decoration-color:#000000;letter-spacing:normal;word-spacing:normal;text-transform:none;direction:ltr;block-progression:tb;writing-mode:lr-tb;baseline-shift:baseline;text-anchor:start;white-space:normal;clip-rule:nonzero;display:inline;overflow:visible;visibility:visible;opacity:1;isolation:auto;mix-blend-mode:normal;color-interpolation:sRGB;color-interpolation-filters:linearRGB;solid-color:#000000;solid-opacity:1;fill:#000000;fill-opacity:1;fill-rule:evenodd;stroke:#000000;stroke-width:5.80783606;stroke-linecap:butt;stroke-linejoin:miter;stroke-miterlimit:3.95000005;stroke-dasharray:none;stroke-dashoffset:0;stroke-opacity:1;color-rendering:auto;image-rendering:auto;shape-rendering:auto;text-rendering:auto;enable-background:accumulate"
       d="m 1925.8696,-1231.4589 -111.9818,-284.6066 -320.8368,61.7572 -135.9779,-314.7834 -334.1679,55.6327 -203.52255,-296.2181 -295.95197,30.8148 -117.31429,-253.1535 -313.726832,43.1279 -49.769702,-210.5997 -233.739836,93.0185 0,1.9141 6.22122,0 0,1.9777 223.074895,-89.063 49.769694,209.2601 314.615581,-43.3194 117.31433,253.026 296.84068,-30.8787 203.52248,296.4094 333.2792,-55.4414 135.9779,314.8472 320.8369,-61.6934 110.2043,280.1407 5.3324,-2.1691 z"
       id="path4685"
       inkscape:connector-curvature="0" />
    <g
       id="g4836"
       transform="matrix(0,1.9842704,-1.9842704,0,3383.4108,-2891.8545)">
      <path
         inkscape:connector-curvature="0"
         id="path4687"
         d="m 734.45181,-190.26283 a 1.4636152,1.4636152 0 0 0 -1.28568,1.34988 c 0,0 -3.99762,39.06145 -2.25068,84.52825 1.74695,45.466961 9.01309,97.3817496 32.3774,123.400547 6.62133,7.373644 11.98332,11.761088 17.07287,14.146921 5.08955,2.385832 9.89973,2.653175 14.98286,1.897077 10.16625,-1.512855 21.70346,-6.843899 42.63402,-7.941747 19.94944,-1.045335 45.20275,5.864905 68.45216,9.356323 11.62478,1.745792 22.7501,2.628812 32.60243,1.157277 9.85232,-1.4717 18.48349,-5.375491 24.62858,-13.182579 10.97371,-13.941146 7.80264,-30.5255899 2.02565,-43.276865 -5.77717,-12.751275 -14.21129,-22.024301 -14.21129,-22.024301 a 1.4636152,1.4636152 0 0 0 -1.44701,-0.451058 c 0,0 -17.98486,4.573135 -39.16154,5.884001 -21.17651,1.310373 -45.39519,-0.81816 -57.80981,-13.343247 -5.77075,-5.82194 -9.13541,-16.970642 -10.61024,-30.448219 -1.47499,-13.477577 -1.11447,-29.23283 0,-44.20944 2.22978,-29.95287 7.55588,-56.81304 7.55588,-56.81304 a 1.4725041,1.4725041 0 1 0 -2.89385,-0.54654 c 0,0 -5.34207,26.99878 -7.58781,57.16665 -1.12271,15.0841 -1.47499,30.954754 0.0329,44.723872 1.50627,13.769283 4.79027,25.469297 11.44617,32.184463 13.60977,13.730762 38.5671,15.541578 60.0605,14.211286 20.91855,-1.29391 37.67799,-5.583734 38.61484,-5.819634 0.42801,0.477397 7.94059,8.781142 13.34325,20.706191 5.55525,12.2615317 8.43889,27.4098337 -1.67188,40.254613 -5.62242,7.142847 -13.37354,10.691883 -22.73167,12.089174 -9.35814,1.397621 -20.27028,0.569584 -31.7665,-1.157276 -22.99243,-3.452897 -48.29167,-10.476066 -69.03095,-9.388424 -21.36829,1.12106 -33.4545,6.565197 -42.92326,7.973847 -4.7343,0.704572 -8.73489,0.490567 -13.27888,-1.639612 -4.544,-2.130178 -9.65742,-6.25209 -16.14047,-13.471815 -22.25674,-24.7854667 -29.89987,-76.303192 -31.63792,-121.535735 -1.73789,-45.23255 2.21858,-84.14239 2.21858,-84.14239 a 1.4636152,1.4636152 0 0 0 -1.60834,-1.63961 z"
         style="color:#000000;font-style:normal;font-variant:normal;font-weight:normal;font-stretch:normal;font-size:medium;line-height:normal;font-family:sans-serif;text-indent:0;text-align:start;text-decoration:none;text-decoration-line:none;text-decoration-style:solid;text-decoration-color:#000000;letter-spacing:normal;word-spacing:normal;text-transform:none;direction:ltr;block-progression:tb;writing-mode:lr-tb;baseline-shift:baseline;text-anchor:start;white-space:normal;clip-rule:nonzero;display:inline;overflow:visible;visibility:visible;opacity:1;isolation:auto;mix-blend-mode:normal;color-interpolation:sRGB;color-interpolation-filters:linearRGB;solid-color:#000000;solid-opacity:1;fill:#000000;fill-opacity:1;fill-rule:evenodd;stroke:#000000;stroke-width:2.92693782;stroke-linecap:round;stroke-linejoin:round;stroke-miterlimit:3.95000005;stroke-dasharray:none;stroke-dashoffset:0;stroke-opacity:1;color-rendering:auto;image-rendering:auto;shape-rendering:auto;text-rendering:auto;enable-background:accumulate" />
      <path
         inkscape:connector-curvature="0"
         id="path4687-5"
         d="m 953.34461,-181.45321 a 1.4636152,1.4636152 0 0 0 -1.41408,1.1902 c 0,0 -5.37368,25.90159 -7.62008,54.85176 -1.12271,14.47501 -1.47664,29.734268 0.0329,42.955368 1.50792,13.221264 4.81348,24.479932 11.47844,30.930554 13.62178,13.184225 38.54125,14.908451 60.02821,13.632649 20.929,-1.242879 37.7365,-5.342402 38.6471,-5.562499 0.4412,0.472459 7.952,8.390171 13.3433,19.805887 2.774,5.874123 4.8737,12.508461 5.0158,19.130616 0.1481,6.6219909 -1.6396,13.2355861 -6.6879,19.387752 -8.3546,10.18255 -21.6119,12.852187 -37.4573,12.185807 -15.8453,-0.66671 -34.03913,-4.731169 -51.60438,-7.684446 a 1.4668043,1.4668043 0 0 0 -0.48234,2.893684 c 17.4571,2.935004 35.71112,7.033211 51.95812,7.716547 16.2471,0.683172 30.7088,-2.082768 39.8689,-13.246615 5.4943,-6.696399 7.4849,-14.1223926 7.3307,-21.3170952 -0.1482,-7.1945378 -2.4132,-14.1964708 -5.3052,-20.3201578 -5.7839,-12.247539 -14.2113,-21.156262 -14.2113,-21.156262 a 1.4636152,1.4636152 0 0 0 -1.4141,-0.418134 c 0,0 -17.9784,4.400942 -39.1614,5.658801 -21.18292,1.257695 -45.43946,-0.79182 -57.84191,-12.796545 -5.76185,-5.576656 -9.10462,-16.244505 -10.57813,-29.16221 -1.47334,-12.917706 -1.1474,-28.045761 -0.0329,-42.408821 2.22895,-28.72614 7.55571,-54.4659 7.55571,-54.4659 a 1.4636152,1.4636152 0 0 0 -1.44701,-1.80061 z"
         style="color:#000000;font-style:normal;font-variant:normal;font-weight:normal;font-stretch:normal;font-size:medium;line-height:normal;font-family:sans-serif;text-indent:0;text-align:start;text-decoration:none;text-decoration-line:none;text-decoration-style:solid;text-decoration-color:#000000;letter-spacing:normal;word-spacing:normal;text-transform:none;direction:ltr;block-progression:tb;writing-mode:lr-tb;baseline-shift:baseline;text-anchor:start;white-space:normal;clip-rule:nonzero;display:inline;overflow:visible;visibility:visible;opacity:1;isolation:auto;mix-blend-mode:normal;color-interpolation:sRGB;color-interpolation-filters:linearRGB;solid-color:#000000;solid-opacity:1;fill:#000000;fill-opacity:1;fill-rule:evenodd;stroke:#000000;stroke-width:2.92693782;stroke-linecap:round;stroke-linejoin:round;stroke-miterlimit:3.95000005;stroke-dasharray:none;stroke-dashoffset:0;stroke-opacity:1;color-rendering:auto;image-rendering:auto;shape-rendering:auto;text-rendering:auto;enable-background:accumulate" />
      <path
         inkscape:connector-curvature="0"
         id="path4734"
         d="m 871.51711,-178.52726 a 1.4636152,1.4636152 0 0 0 -1.34988,1.28568 c -9.88788,70.53327 -6.85888,106.249976 -1.1902,124.590089 2.83459,9.170139 6.36749,14.032675 9.32422,16.590535 1.47829,1.279095 2.79706,1.973625 3.79383,2.347147 0.99759,0.373687 1.80061,0.418134 1.80061,0.418134 a 1.4643739,1.4643739 0 1 0 0.13169,-2.925785 c 0,0 -0.21894,0.03292 -0.90047,-0.225529 -0.67987,-0.255161 -1.70463,-0.775359 -2.92578,-1.832711 -2.44246,-2.113058 -5.70506,-6.444695 -8.42392,-15.24016 -5.43755,-17.590928 -8.57125,-52.98794 1.28568,-123.30408 a 1.4636152,1.4636152 0 0 0 -1.54249,-1.70398 z"
         style="color:#000000;font-style:normal;font-variant:normal;font-weight:normal;font-stretch:normal;font-size:medium;line-height:normal;font-family:sans-serif;text-indent:0;text-align:start;text-decoration:none;text-decoration-line:none;text-decoration-style:solid;text-decoration-color:#000000;letter-spacing:normal;word-spacing:normal;text-transform:none;direction:ltr;block-progression:tb;writing-mode:lr-tb;baseline-shift:baseline;text-anchor:start;white-space:normal;clip-rule:nonzero;display:inline;overflow:visible;visibility:visible;opacity:1;isolation:auto;mix-blend-mode:normal;color-interpolation:sRGB;color-interpolation-filters:linearRGB;solid-color:#000000;solid-opacity:1;fill:#000000;fill-opacity:1;fill-rule:evenodd;stroke:#000000;stroke-width:2.92693782;stroke-linecap:round;stroke-linejoin:round;stroke-miterlimit:3.95000005;stroke-dasharray:none;stroke-dashoffset:0;stroke-opacity:1;color-rendering:auto;image-rendering:auto;shape-rendering:auto;text-rendering:auto;enable-background:accumulate" />
    </g>
  </g>
</svg>
